<svg xmlns="http://www.w3.org/2000/svg" viewBox="0 0 960 800" width="100%" height="100%">
  <defs>
    <style>
      .title { font-family: 'Inter', system-ui, sans-serif; font-weight: bold; font-size: 18px; fill: #1e293b; }
      .participant-box { rx: 6px; ry: 6px; }
      .participant-text { font-family: 'Inter', system-ui, sans-serif; font-weight: 600; font-size: 13px; fill: #ffffff; text-anchor: middle; }
      .lifeline { stroke: #cbd5e1; stroke-width: 1.5; stroke-dasharray: 6,4; }
      .message-line { stroke-width: 2; }
      .message-text { font-family: 'Inter', system-ui, sans-serif; font-size: 12px; fill: #334155; }
      .self-msg-text { font-family: 'Inter', system-ui, sans-serif; font-size: 11px; fill: #334155; }
      .alt-box { fill: #f8fafc; fill-opacity: 0.5; stroke: #94a3b8; stroke-width: 1.5; stroke-dasharray: 4,4; rx: 4px; ry: 4px; }
      .alt-label { font-family: 'Inter', system-ui, sans-serif; font-weight: bold; font-size: 11px; fill: #475569; }
      .alt-cond { font-family: 'Inter', system-ui, sans-serif; font-style: italic; font-size: 11px; fill: #64748b; }
      .activation-bar { fill: #f1f5f9; stroke: #94a3b8; stroke-width: 1.5; width: 12px; }
    </style>
    <marker id="arrow" viewBox="0 0 10 10" refX="8" refY="5" markerWidth="6" markerHeight="6" orient="auto-start-reverse">
      <path d="M 0 1 L 10 5 L 0 9 z" fill="#334155" />
    </marker>
    <marker id="reply-arrow" viewBox="0 0 10 10" refX="8" refY="5" markerWidth="6" markerHeight="6" orient="auto-start-reverse">
      <path d="M 0 1 L 8 5 L 0 9" fill="none" stroke="#475569" stroke-width="2" />
    </marker>
  </defs>
  <rect width="100%" height="100%" fill="#ffffff" />
  <text x="40" y="45" class="title">12. Kelola Berita</text>
  <line x1="100.0" y1="80" x2="100.0" y2="740" class="lifeline" />
  <line x1="290.0" y1="80" x2="290.0" y2="740" class="lifeline" />
  <line x1="480.0" y1="80" x2="480.0" y2="740" class="lifeline" />
  <line x1="670.0" y1="80" x2="670.0" y2="740" class="lifeline" />
  <line x1="860.0" y1="80" x2="860.0" y2="740" class="lifeline" />
  <g transform="translate(20.0, 75)">
    <rect x="0" y="0" width="160" height="35" class="participant-box" fill="#C9A961" />
    <text x="80" y="22" class="participant-text">Actor</text>
  </g>
  <g transform="translate(210.0, 75)">
    <rect x="0" y="0" width="160" height="35" class="participant-box" fill="#17A2B8" />
    <text x="80" y="22" class="participant-text">View</text>
  </g>
  <g transform="translate(400.0, 75)">
    <rect x="0" y="0" width="160" height="35" class="participant-box" fill="#6C757D" />
    <text x="80" y="22" class="participant-text">Middleware</text>
  </g>
  <g transform="translate(590.0, 75)">
    <rect x="0" y="0" width="160" height="35" class="participant-box" fill="#007BFF" />
    <text x="80" y="22" class="participant-text">Controller</text>
  </g>
  <g transform="translate(780.0, 75)">
    <rect x="0" y="0" width="160" height="35" class="participant-box" fill="#28A745" />
    <text x="80" y="22" class="participant-text">Database</text>
  </g>
  <g transform="translate(20.0, 750)">
    <rect x="0" y="0" width="160" height="35" class="participant-box" fill="#C9A961" />
    <text x="80" y="22" class="participant-text">Actor</text>
  </g>
  <g transform="translate(210.0, 750)">
    <rect x="0" y="0" width="160" height="35" class="participant-box" fill="#17A2B8" />
    <text x="80" y="22" class="participant-text">View</text>
  </g>
  <g transform="translate(400.0, 750)">
    <rect x="0" y="0" width="160" height="35" class="participant-box" fill="#6C757D" />
    <text x="80" y="22" class="participant-text">Middleware</text>
  </g>
  <g transform="translate(590.0, 750)">
    <rect x="0" y="0" width="160" height="35" class="participant-box" fill="#007BFF" />
    <text x="80" y="22" class="participant-text">Controller</text>
  </g>
  <g transform="translate(780.0, 750)">
    <rect x="0" y="0" width="160" height="35" class="participant-box" fill="#28A745" />
    <text x="80" y="22" class="participant-text">Database</text>
  </g>
  <line x1="100.0" y1="120" x2="290.0" y2="120" stroke="#334155" class="message-line" marker-end="url(#arrow)" />
  <text x="195.0" y="112" text-anchor="middle" class="message-text">Submit berita baru</text>
  <line x1="290.0" y1="170" x2="480.0" y2="170" stroke="#334155" class="message-line" marker-end="url(#arrow)" />
  <text x="385.0" y="162" text-anchor="middle" class="message-text">POST /admin/berita</text>
  <line x1="480.0" y1="220" x2="670.0" y2="220" stroke="#334155" class="message-line" marker-end="url(#arrow)" />
  <text x="575.0" y="212" text-anchor="middle" class="message-text">Forward request</text>
  <line x1="670.0" y1="270" x2="860.0" y2="270" stroke="#334155" class="message-line" marker-end="url(#arrow)" />
  <text x="765.0" y="262" text-anchor="middle" class="message-text">Simpan berita dengan status=draft</text>
  <line x1="860.0" y1="320" x2="670.0" y2="320" stroke="#475569" class="message-line" stroke-dasharray="5,5" marker-end="url(#reply-arrow)" />
  <text x="765.0" y="312" text-anchor="middle" class="message-text">Success</text>
  <line x1="670.0" y1="370" x2="290.0" y2="370" stroke="#475569" class="message-line" stroke-dasharray="5,5" marker-end="url(#reply-arrow)" />
  <text x="480.0" y="362" text-anchor="middle" class="message-text">Tampilkan sukses (Disimpan sebagai Draft)</text>
  <line x1="100.0" y1="420" x2="290.0" y2="420" stroke="#334155" class="message-line" marker-end="url(#arrow)" />
  <text x="195.0" y="412" text-anchor="middle" class="message-text">Review berita draft, klik Publikasikan</text>
  <line x1="290.0" y1="470" x2="480.0" y2="470" stroke="#334155" class="message-line" marker-end="url(#arrow)" />
  <text x="385.0" y="462" text-anchor="middle" class="message-text">POST /admin/berita/{id}/approve</text>
  <line x1="480.0" y1="520" x2="670.0" y2="520" stroke="#334155" class="message-line" marker-end="url(#arrow)" />
  <text x="575.0" y="512" text-anchor="middle" class="message-text">Forward request</text>
  <line x1="670.0" y1="570" x2="860.0" y2="570" stroke="#334155" class="message-line" marker-end="url(#arrow)" />
  <text x="765.0" y="562" text-anchor="middle" class="message-text">Update status=approved & set tanggal_publish</text>
  <line x1="860.0" y1="620" x2="670.0" y2="620" stroke="#475569" class="message-line" stroke-dasharray="5,5" marker-end="url(#reply-arrow)" />
  <text x="765.0" y="612" text-anchor="middle" class="message-text">Success</text>
  <line x1="670.0" y1="670" x2="290.0" y2="670" stroke="#475569" class="message-line" stroke-dasharray="5,5" marker-end="url(#reply-arrow)" />
  <text x="480.0" y="662" text-anchor="middle" class="message-text">Tampilkan status APPROVED (Terbit)</text>
</svg>